<svg width="26" height="30" viewBox="0 0 26 30" fill="none" xmlns="http://www.w3.org/2000/svg">
<mask id="path-1-inside-1_72_959" fill="white">
<path d="M24.875 3.125H21.75V1.25C21.75 0.875 21.5 0.625 21.125 0.625H4.875C4.5 0.625 4.25 0.875 4.25 1.25V3.125H1.125C0.75 3.125 0.5 3.375 0.5 3.75V10C0.5 12.25 2.25 14.125 4.4375 14.375C5.125 17.5 7.4375 20 10.5 20.875V21.25C10.4375 21.75 10.375 22.1875 10.25 22.625C9.9375 23.75 9.5 24.375 8.9375 24.375H6.75C5.375 24.375 4.25 25.5 4.25 26.875C4.25 28.25 5.375 29.375 6.75 29.375H8C8.375 29.375 8.625 29.125 8.625 28.75C8.625 28.375 8.375 28.125 8 28.125H6.75C6.0625 28.125 5.5 27.5625 5.5 26.875C5.5 26.1875 6.0625 25.625 6.75 25.625H19.25C19.9375 25.625 20.5 26.1875 20.5 26.875C20.5 27.5625 19.9375 28.125 19.25 28.125H11.125C10.75 28.125 10.5 28.375 10.5 28.75C10.5 29.125 10.75 29.375 11.125 29.375H19.25C20.625 29.375 21.75 28.25 21.75 26.875C21.75 25.5 20.625 24.375 19.25 24.375H17.375C16.8125 24.375 16.375 23.75 16.0625 22.6875C15.9375 22.25 15.875 21.75 15.8125 21.3125V20.8125C16.25 20.625 16.75 20.4375 17.125 20.25C17.375 20.0625 17.5 19.75 17.375 19.4375C17.25 19.125 16.875 19 16.5625 19.125L15.875 19.4375C15.875 19.4375 15.8125 19.4375 15.8125 19.5C14.9375 19.8125 14 20 13 20C8.875 20 5.5 16.625 5.5 12.5V1.875H20.5V12.5C20.5 13.375 20.375 14.25 20.0625 15L19.875 15.625C19.75 15.9375 19.9375 16.3125 20.25 16.4375C20.5625 16.5625 20.9375 16.375 21.0625 16.0625L21.1875 15.6875C21.375 15.25 21.5 14.8125 21.5625 14.375C23.75 14.1875 25.5 12.3125 25.5 10V3.75C25.5 3.375 25.1875 3.125 24.875 3.125ZM14.5625 21.125V21.375C14.625 21.9375 14.6875 22.4375 14.8125 23C14.9375 23.5625 15.125 24 15.375 24.4375H10.875C11.125 24.0625 11.3125 23.5625 11.4375 23C11.5625 22.5 11.625 21.9375 11.6875 21.375V21.1875C12.125 21.25 12.5 21.3125 12.9375 21.3125C13.5625 21.25 14.0625 21.1875 14.5625 21.125ZM1.75 10V4.375H4.25V13.0625C2.8125 12.8125 1.75 11.5 1.75 10ZM21.75 13.0625V4.375H24.25V10C24.25 11.5 23.1875 12.8125 21.75 13.0625ZM18.3125 18.0625C18.3125 18.2283 18.3783 18.3872 18.4956 18.5044C18.6128 18.6217 18.7717 18.6875 18.9375 18.6875C19.1033 18.6875 19.2622 18.6217 19.3794 18.5044C19.4967 18.3872 19.5625 18.2283 19.5625 18.0625C19.5625 17.8967 19.4967 17.7378 19.3794 17.6206C19.2622 17.5033 19.1033 17.4375 18.9375 17.4375C18.7717 17.4375 18.6128 17.5033 18.4956 17.6206C18.3783 17.7378 18.3125 17.8967 18.3125 18.0625ZM16.75 7.5L15.125 7.25H15.0625L14.3125 5.8125C13.6875 4.5625 12.125 4.5625 11.5 5.8125L10.75 7.25H10.6875L9.25 7.5C7.875 7.6875 7.375 9.1875 8.375 10.1875L9.5625 11.3125V11.375L9.3125 13C9.0625 14.375 10.375 15.3125 11.5625 14.625L13 13.875C13.0625 13.9375 14.4375 14.625 14.4375 14.625C15.6875 15.25 16.9375 14.3125 16.6875 13L16.4375 11.375V11.3125L17.625 10.1875C18.5625 9.1875 18.125 7.6875 16.75 7.5ZM16.75 9.25L15.5625 10.4375C15.3125 10.6875 15.1875 11.125 15.25 11.5L15.5 13.125C15.5625 13.4375 15.375 13.625 15.0625 13.4375L13.5625 12.6875C13.25 12.5 12.75 12.5 12.4375 12.6875L10.9375 13.4375C10.625 13.625 10.4375 13.4375 10.5 13.125L10.75 11.5C10.8125 11.1875 10.625 10.6875 10.4375 10.4375L9.25 9.25C9 9 9.0625 8.75 9.4375 8.75L11.0625 8.5C11.375 8.4375 11.8125 8.1875 11.9375 7.875L12.6875 6.375C12.8125 6.0625 13.0625 6.0625 13.25 6.375L14 7.875C14.125 8.1875 14.5625 8.5 14.875 8.5L16.5 8.75C16.875 8.8125 17 9 16.75 9.25Z"/>
</mask>
<path d="M24.875 3.125H21.75V1.25C21.75 0.875 21.5 0.625 21.125 0.625H4.875C4.5 0.625 4.25 0.875 4.25 1.25V3.125H1.125C0.75 3.125 0.5 3.375 0.5 3.75V10C0.5 12.25 2.25 14.125 4.4375 14.375C5.125 17.5 7.4375 20 10.5 20.875V21.25C10.4375 21.75 10.375 22.1875 10.25 22.625C9.9375 23.75 9.5 24.375 8.9375 24.375H6.75C5.375 24.375 4.25 25.5 4.25 26.875C4.25 28.25 5.375 29.375 6.75 29.375H8C8.375 29.375 8.625 29.125 8.625 28.75C8.625 28.375 8.375 28.125 8 28.125H6.75C6.0625 28.125 5.5 27.5625 5.5 26.875C5.5 26.1875 6.0625 25.625 6.75 25.625H19.25C19.9375 25.625 20.5 26.1875 20.5 26.875C20.5 27.5625 19.9375 28.125 19.25 28.125H11.125C10.75 28.125 10.5 28.375 10.5 28.75C10.5 29.125 10.75 29.375 11.125 29.375H19.25C20.625 29.375 21.75 28.25 21.75 26.875C21.75 25.5 20.625 24.375 19.25 24.375H17.375C16.8125 24.375 16.375 23.75 16.0625 22.6875C15.9375 22.25 15.875 21.75 15.8125 21.3125V20.8125C16.25 20.625 16.75 20.4375 17.125 20.25C17.375 20.0625 17.5 19.75 17.375 19.4375C17.25 19.125 16.875 19 16.5625 19.125L15.875 19.4375C15.875 19.4375 15.8125 19.4375 15.8125 19.5C14.9375 19.8125 14 20 13 20C8.875 20 5.5 16.625 5.5 12.5V1.875H20.5V12.5C20.5 13.375 20.375 14.25 20.0625 15L19.875 15.625C19.75 15.9375 19.9375 16.3125 20.25 16.4375C20.5625 16.5625 20.9375 16.375 21.0625 16.0625L21.1875 15.6875C21.375 15.25 21.5 14.8125 21.5625 14.375C23.75 14.1875 25.5 12.3125 25.5 10V3.75C25.5 3.375 25.1875 3.125 24.875 3.125ZM14.5625 21.125V21.375C14.625 21.9375 14.6875 22.4375 14.8125 23C14.9375 23.5625 15.125 24 15.375 24.4375H10.875C11.125 24.0625 11.3125 23.5625 11.4375 23C11.5625 22.5 11.625 21.9375 11.6875 21.375V21.1875C12.125 21.25 12.5 21.3125 12.9375 21.3125C13.5625 21.25 14.0625 21.1875 14.5625 21.125ZM1.75 10V4.375H4.25V13.0625C2.8125 12.8125 1.75 11.5 1.75 10ZM21.75 13.0625V4.375H24.25V10C24.25 11.5 23.1875 12.8125 21.75 13.0625ZM18.3125 18.0625C18.3125 18.2283 18.3783 18.3872 18.4956 18.5044C18.6128 18.6217 18.7717 18.6875 18.9375 18.6875C19.1033 18.6875 19.2622 18.6217 19.3794 18.5044C19.4967 18.3872 19.5625 18.2283 19.5625 18.0625C19.5625 17.8967 19.4967 17.7378 19.3794 17.6206C19.2622 17.5033 19.1033 17.4375 18.9375 17.4375C18.7717 17.4375 18.6128 17.5033 18.4956 17.6206C18.3783 17.7378 18.3125 17.8967 18.3125 18.0625ZM16.75 7.5L15.125 7.25H15.0625L14.3125 5.8125C13.6875 4.5625 12.125 4.5625 11.5 5.8125L10.75 7.25H10.6875L9.25 7.5C7.875 7.6875 7.375 9.1875 8.375 10.1875L9.5625 11.3125V11.375L9.3125 13C9.0625 14.375 10.375 15.3125 11.5625 14.625L13 13.875C13.0625 13.9375 14.4375 14.625 14.4375 14.625C15.6875 15.25 16.9375 14.3125 16.6875 13L16.4375 11.375V11.3125L17.625 10.1875C18.5625 9.1875 18.125 7.6875 16.75 7.5ZM16.75 9.25L15.5625 10.4375C15.3125 10.6875 15.1875 11.125 15.25 11.5L15.5 13.125C15.5625 13.4375 15.375 13.625 15.0625 13.4375L13.5625 12.6875C13.25 12.5 12.75 12.5 12.4375 12.6875L10.9375 13.4375C10.625 13.625 10.4375 13.4375 10.5 13.125L10.75 11.5C10.8125 11.1875 10.625 10.6875 10.4375 10.4375L9.25 9.25C9 9 9.0625 8.75 9.4375 8.75L11.0625 8.5C11.375 8.4375 11.8125 8.1875 11.9375 7.875L12.6875 6.375C12.8125 6.0625 13.0625 6.0625 13.25 6.375L14 7.875C14.125 8.1875 14.5625 8.5 14.875 8.5L16.5 8.75C16.875 8.8125 17 9 16.75 9.25Z" fill="white" stroke="white" stroke-width="4" mask="url(#path-1-inside-1_72_959)"/>
</svg>
