<svg width="28" height="30" viewBox="0 0 28 30" fill="none" xmlns="http://www.w3.org/2000/svg">
<path d="M20.9375 19.375C20.9375 19.3584 20.9309 19.3425 20.9192 19.3308C20.9075 19.3191 20.8916 19.3125 20.875 19.3125C20.8584 19.3125 20.8425 19.3191 20.8308 19.3308C20.8191 19.3425 20.8125 19.3584 20.8125 19.375C20.8125 19.3916 20.8191 19.4075 20.8308 19.4192M20.9375 19.375L20.8308 19.4192M20.9375 19.375C20.9375 19.3916 20.9309 19.4075 20.9192 19.4192M20.9375 19.375L20.9192 19.4192M20.8308 19.4192C20.8425 19.4309 20.8584 19.4375 20.875 19.4375C20.8916 19.4375 20.9075 19.4309 20.9192 19.4192M20.8308 19.4192L20.9192 19.4192M1.76517 22.8598C1.83549 22.9302 1.875 23.0255 1.875 23.125C1.875 23.2245 1.83549 23.3198 1.76517 23.3902C1.69484 23.4605 1.59945 23.5 1.5 23.5C1.40055 23.5 1.30516 23.4605 1.23483 23.3902C1.16451 23.3198 1.125 23.2245 1.125 23.125C1.125 23.0255 1.16451 22.9302 1.23483 22.8598C1.30516 22.7895 1.40055 22.75 1.5 22.75C1.59945 22.75 1.69484 22.7895 1.76517 22.8598Z" fill="white" stroke="white" stroke-width="2"/>
</svg>
